# Blender 4.2.2 LTS
# www.blender.org
o Sphere
v 0.435285 0.945165 0.398943
v -0.173965 0.824335 0.477471
v 0.329663 0.888442 0.502239
v -0.571556 0.821741 0.337550
v -0.568285 0.829634 0.318969
v -0.670954 0.705069 -0.220868
v 0.400148 0.991399 0.270104
v -0.143788 0.937514 -0.349521
v -0.023422 1.041990 -0.012709
v 0.817325 0.571583 0.328602
v 0.875778 0.561407 -0.217533
v 0.826171 -0.028377 0.058882
v 0.952491 0.463204 0.032584
v 0.730315 -0.030375 -0.170012
v 0.793387 0.518396 -0.386580
v -0.021766 0.737764 -0.667598
v 0.373370 0.560409 -0.684615
v 0.208151 0.591700 0.742379
v 0.135813 0.554064 0.763696
v 0.622961 0.334369 0.588293
v 0.536881 -0.034665 0.591835
v -0.736694 0.510368 0.481376
v 0.007875 -0.045996 0.765489
v -0.104481 0.324558 0.827475
v -0.824749 0.449122 -0.397247
v -0.803707 -0.063209 0.227628
v -0.899701 0.241101 0.276093
v -0.110518 -0.048210 -0.718658
v -0.114406 0.299840 -0.885091
v -0.279207 0.390893 -0.870103
v -0.656283 -0.059905 -0.517992
v -0.725790 0.283867 -0.658911
vn 0.8940 -0.2496 -0.3722
vn -0.4258 0.8960 -0.1258
vn -0.3064 -0.4134 -0.8574
vn -0.1352 0.9203 0.3671
vn -0.9449 -0.2681 -0.1880
vn 0.5251 0.3950 0.7538
vn 0.7036 0.7079 0.0621
vn 0.5141 -0.3653 -0.7760
vn 0.3626 0.8455 -0.3919
vn 0.8627 -0.1968 0.4659
vn -0.1200 0.6538 0.7471
vn 0.3125 -0.0638 0.9478
vn -0.8718 0.4870 0.0534
vn -0.2860 0.5227 0.8031
vn -0.5239 -0.2927 0.7999
vn -0.4417 0.6737 -0.5925
vn 0.1475 0.4147 -0.8979
vn 0.0213 -0.9998 -0.0002
vt 0.529684 0.425744
vt 0.570385 0.604915
vt 0.537614 0.619882
vt 0.494270 0.585453
vt 0.481528 0.426410
vt 0.481249 0.835422
vt 0.740278 0.790797
vt 0.785576 0.684400
vt 0.125783 0.718613
vt 0.762856 0.532862
vt 0.745976 0.419802
vt 0.735470 0.415906
vt 0.879648 0.527362
vt 0.792759 0.566499
vt 0.096955 0.714792
vt 0.195367 0.715862
vt 0.353047 0.746488
vt 0.409613 0.773740
vt 0.451760 0.800490
vt 0.303355 0.414805
vt 0.050065 0.514746
vt 0.893033 0.584887
vt 0.296251 0.636998
vt 0.383290 0.546794
vt 0.439972 0.625862
vt 0.667001 0.618903
vt 0.738542 0.697582
vt 0.373842 0.424315
vt 0.271707 0.622280
vt 0.232144 0.544712
vt 0.264969 0.420540
vt 0.095247 0.604473
vt 0.058479 0.414805
s 0
f 14/1/1 15/2/1 11/3/1 13/4/1 12/5/1
f 9/6/2 8/7/2 6/8/2 5/9/2
f 29/10/3 28/11/3 31/12/3 32/13/3 30/14/3
f 9/6/4 5/9/4 4/15/4 2/16/4 3/17/4 1/18/4 7/19/4
f 32/13/5 31/12/5 26/20/5 27/21/5 25/22/5
f 18/23/6 20/24/6 10/25/6 1/18/6 3/17/6
f 1/18/7 10/25/7 13/4/7 11/3/7 7/19/7
f 28/11/8 29/10/8 17/26/8 15/2/8 14/1/8
f 15/2/9 17/26/9 16/27/9 8/7/9 9/6/9 7/19/9 11/3/9
f 12/5/10 13/4/10 10/25/10 20/24/10 21/28/10
f 2/16/11 19/29/11 18/23/11 3/17/11
f 21/28/12 20/24/12 18/23/12 19/29/12 24/30/12 23/31/12
f 25/22/13 27/21/13 22/32/13 4/15/13 5/9/13 6/8/13
f 2/16/14 4/15/14 22/32/14 24/30/14 19/29/14
f 22/32/15 27/21/15 26/33/15 23/31/15 24/30/15
f 25/22/16 6/8/16 8/7/16 16/27/16 30/14/16 32/13/16
f 16/27/17 17/26/17 29/10/17 30/14/17
f 21/28/18 23/31/18 26/20/18 31/12/18 28/11/18 14/1/18 12/5/18
