# Blender 4.2.2 LTS
# www.blender.org
o Stick
v -0.456443 5.183255 -0.747421
v -0.370232 5.183255 -0.711711
v -0.334522 5.183255 -0.625500
v -0.370232 5.183255 -0.539289
v -0.456443 5.183255 -0.503579
v -0.542654 5.183255 -0.539289
v -0.578364 5.183255 -0.625500
v -0.542654 5.183255 -0.711711
v -0.377492 6.329776 -0.119042
v -0.000000 -0.396031 -0.377303
v 0.266793 -0.396031 -0.266793
v 0.377302 -0.396031 0.000000
v 0.266793 -0.396031 0.266793
v -0.000000 -0.396031 0.377303
v -0.266793 -0.396031 0.266793
v -0.377303 -0.396031 0.000000
v -0.266793 -0.396031 -0.266793
v 0.092589 3.745687 0.352145
v -0.270893 2.234873 -0.004346
v 0.185552 1.099315 0.357926
v 0.255579 1.105830 0.155176
v -0.194750 2.239539 -0.162107
v 0.134328 3.739753 0.214307
v 0.172307 1.054553 -0.035850
v -0.250831 2.265820 -0.326035
v 0.067830 3.716266 0.088597
v -0.067953 3.688983 0.048654
v -0.406284 2.298321 -0.400102
v -0.015484 0.975522 -0.103249
v -0.197789 0.915031 -0.007541
v -0.570047 2.318004 -0.340922
v -0.193481 3.673887 0.117877
v -0.267815 0.908516 0.195209
v -0.646190 2.313338 -0.183161
v -0.235220 3.679820 0.255715
v -0.184544 0.959793 0.386235
v -0.590109 2.287057 -0.019234
v -0.168722 3.703308 0.381425
v 0.003247 1.038824 0.453634
v -0.434656 2.254555 0.054834
v -0.032939 3.730591 0.421368
vn 0.3450 0.4327 -0.8329
vn 0.9053 0.1996 -0.3750
vn 0.9156 -0.1332 0.3793
vn 0.3627 -0.3187 0.8757
vn -0.3682 -0.2728 0.8888
vn -0.9239 -0.0072 0.3827
vn 0.9327 0.0337 0.3591
vn -0.8771 0.3142 -0.3633
vn -0.3377 0.4702 -0.8154
vn -0.0000 -1.0000 -0.0000
vn 0.9096 0.1187 -0.3983
vn -0.4305 0.1842 -0.8836
vn -0.9267 0.1248 -0.3546
vn -0.9215 0.0206 0.3878
vn 0.3315 0.1787 -0.9264
vn -0.3557 -0.0546 0.9330
vn 0.4215 -0.0406 0.9059
vn 0.3308 0.5728 0.7500
vn 0.3818 -0.3087 0.8712
vn 0.3339 0.4028 0.8522
vn -0.3380 0.4338 0.8352
vn -0.3631 -0.1410 0.9210
vn -0.3944 0.1556 0.9057
vn 0.3401 -0.3709 -0.8642
vn 0.3606 0.1939 -0.9123
vn 0.3897 -0.0872 -0.9168
vn -0.9017 0.0431 0.4301
vn -0.9092 0.1554 0.3863
vn -0.9156 -0.1564 0.3705
vn -0.8811 -0.3699 -0.2948
vn -0.8645 0.3643 -0.3463
vn -0.8727 -0.3256 -0.3639
vn -0.3522 -0.5109 -0.7842
vn -0.3708 0.3770 -0.8488
vn -0.3590 -0.3045 -0.8823
vn 0.8987 0.0337 -0.4372
vn 0.9162 -0.0969 -0.3887
vn 0.8981 0.2388 -0.3694
vn 0.8502 0.4445 0.2821
vn 0.8883 -0.2908 0.3555
vn 0.8292 0.4361 0.3497
vt 0.250000 0.490000
vt 0.250000 0.250000
vt 0.419706 0.419706
vt 0.490000 0.250000
vt 0.419706 0.080294
vt 0.250000 0.010000
vt 0.080294 0.080294
vt 0.010000 0.250000
vt 0.080294 0.419706
vt 0.750000 0.490000
vt 0.919706 0.419706
vt 0.990000 0.250000
vt 0.919706 0.080294
vt 0.750000 0.010000
vt 0.580294 0.080294
vt 0.510000 0.250000
vt 0.580294 0.419706
vt 0.419706 0.080294
vt 0.419706 0.419706
vt 0.080294 0.419706
s 0
f 1/1/1 9/2/1 2/3/1
f 2/3/2 9/2/2 3/4/2
f 3/4/3 9/2/3 4/5/3
f 4/5/4 9/2/4 5/6/4
f 5/6/5 9/2/5 6/7/5
f 6/7/6 9/2/6 7/8/6
f 21/4/7 20/5/7 13/5/7 12/4/7
f 7/8/8 9/2/8 8/9/8
f 8/9/9 9/2/9 1/1/9
f 10/10/10 11/11/10 12/12/10 13/13/10 14/14/10 15/15/10 16/16/10 17/17/10
f 24/3/11 21/4/11 12/4/11 11/3/11
f 30/9/12 29/1/12 10/1/12 17/9/12
f 33/8/13 30/9/13 17/9/13 16/8/13
f 36/7/14 33/8/14 16/8/14 15/7/14
f 29/1/15 24/3/15 11/3/15 10/1/15
f 39/6/16 36/7/16 15/7/16 14/6/16
f 20/5/17 39/6/17 14/6/17 13/5/17
f 4/5/18 5/6/18 41/6/18 18/5/18
f 18/5/19 41/6/19 40/6/19 19/18/19
f 19/18/20 40/6/20 39/6/20 20/5/20
f 5/6/21 6/7/21 38/7/21 41/6/21
f 41/6/22 38/7/22 37/7/22 40/6/22
f 40/6/23 37/7/23 36/7/23 39/6/23
f 1/1/24 2/3/24 26/3/24 27/1/24
f 27/1/25 26/3/25 25/19/25 28/1/25
f 28/1/26 25/19/26 24/3/26 29/1/26
f 6/7/27 7/8/27 35/8/27 38/7/27
f 38/7/28 35/8/28 34/8/28 37/7/28
f 37/7/29 34/8/29 33/8/29 36/7/29
f 7/8/30 8/9/30 32/9/30 35/8/30
f 35/8/31 32/9/31 31/20/31 34/8/31
f 34/8/32 31/20/32 30/9/32 33/8/32
f 8/9/33 1/1/33 27/1/33 32/9/33
f 32/9/34 27/1/34 28/1/34 31/20/34
f 31/20/35 28/1/35 29/1/35 30/9/35
f 2/3/36 3/4/36 23/4/36 26/3/36
f 26/3/37 23/4/37 22/4/37 25/19/37
f 25/19/38 22/4/38 21/4/38 24/3/38
f 3/4/39 4/5/39 18/5/39 23/4/39
f 23/4/40 18/5/40 19/18/40 22/4/40
f 22/4/41 19/18/41 20/5/41 21/4/41
o Branch
v -0.393133 1.083004 0.157544
v 0.542268 0.788693 -0.038432
v -0.401697 2.172560 -1.519595
v 0.533704 1.878248 -1.715571
v -0.056917 0.643832 -0.129482
v -0.065481 1.733387 -1.806621
v 0.016400 1.793416 -0.404135
v -0.125124 1.586632 0.563962
v 1.494141 3.050956 0.080502
v 1.352617 2.844172 1.048599
v 0.190641 1.411263 0.056187
v 1.668383 2.668804 0.540824
v 0.503400 1.169541 0.295411
v -0.437251 1.132862 -0.041977
v -0.077646 2.371324 1.784741
v -1.018297 2.334645 1.447353
v -0.032161 0.854257 0.340879
v -0.613207 2.056040 1.830209
v -0.000025 1.698955 0.442012
v -0.324937 1.555403 -0.492773
v -1.665406 2.723050 0.863598
v -1.990319 2.579497 -0.071188
v -0.329231 1.312240 0.080943
v -1.994613 2.336334 0.502529
v -0.245738 2.611885 -0.445715
v -0.761921 2.316830 0.358336
v 0.759663 3.923286 0.680961
v 0.243480 3.628231 1.485012
v -0.245953 2.205906 0.027019
v 0.759447 3.517306 1.153695
v -0.704584 3.267183 -0.035688
v 0.286461 3.231141 0.092879
v -0.444946 4.237839 -1.764969
v 0.546100 4.201797 -1.636402
v -0.197446 2.924289 -0.152014
v 0.062192 3.894945 -1.881295
v 0.246431 3.734760 -0.120881
v -0.655581 3.769869 0.309401
v 0.806009 5.347923 0.920549
v -0.096002 5.383033 1.350831
v -0.082309 3.532874 0.368475
v 0.477270 5.146038 1.409905
v -0.490552 2.726323 0.341144
v -0.242823 2.582770 -0.616991
v -2.110358 3.750417 -0.231096
v -1.862629 3.606864 -1.189231
v -0.564412 2.339607 -0.141860
v -2.184218 3.363701 -0.714100
v -0.738706 2.386669 -0.457648
v 0.014578 2.350627 0.199059
v 0.436558 3.357325 -1.752477
v 1.189841 3.321283 -1.095770
v -0.252216 2.043775 -0.273128
v 0.923048 3.014431 -1.567956
v -0.347445 1.534310 -0.080394
v 0.310015 1.176738 0.582847
v 0.942926 2.977962 -0.581203
v 1.600385 2.620391 0.082039
v 0.126025 1.135167 -0.011052
v 1.416396 2.578820 -0.511861
v -0.474665 2.097810 0.176741
v 0.247460 1.954257 -0.499964
v -1.536558 3.121904 -1.173673
v -0.814433 2.978351 -1.850377
v -0.278508 1.711094 -0.270775
v -1.340400 2.735188 -1.621188
v -0.237358 3.068981 0.438502
v 0.013477 2.980609 -0.525486
v -1.222393 4.760280 0.027143
v -0.971558 4.671908 -0.936845
v -0.421858 2.829046 -0.106189
v -1.406892 4.520345 -0.517548
v 0.358721 4.570895 -0.048644
v -0.463625 4.606005 -0.616548
v -0.265689 6.184059 0.955256
v -1.088035 6.219168 0.387353
v -0.229350 4.369009 -0.090006
v -0.853761 5.982173 0.913894
v -0.141960 4.216007 0.490260
v -0.121623 4.303636 -0.241123
v -1.331152 5.083679 0.561151
v -1.310815 5.171308 -0.170233
v -0.293489 4.040719 0.093821
v -1.482680 4.908391 0.164711
v -0.115908 2.839648 0.265982
v -0.446502 2.916143 -0.388137
v -1.094444 3.762446 0.868451
v -1.425037 3.838941 0.214333
v -0.445146 2.666126 -0.002986
v -1.423681 3.588924 0.599483
v -0.540452 2.765563 -0.445443
v -0.222645 2.724769 0.218145
v 0.615464 3.526520 -0.952256
v 0.933270 3.485727 -0.288668
v -0.259347 2.510972 -0.186570
v 0.896568 3.271929 -0.693383
v 0.262272 1.967348 -0.030636
v -0.470492 2.043843 -0.015821
v 0.381712 2.890146 1.112270
v -0.351052 2.966640 1.127086
v -0.122721 1.793826 0.149702
v -0.003281 2.716624 1.292608
v -0.497788 3.970299 -0.007153
v 0.135930 4.057928 0.358548
v 0.005373 4.837971 -1.086982
v 0.639090 4.925600 -0.721281
v -0.076986 3.795011 0.048076
v 0.426175 4.662683 -1.031753
vn -0.2745 0.8057 0.5248
vn 0.8419 0.4544 0.2909
vn -0.4442 0.7249 -0.5266
vn -0.6131 0.4781 0.6289
vn 0.7021 0.6626 -0.2607
vn -0.4206 0.6188 -0.6634
vn 0.5537 0.7652 0.3285
vn 0.1659 0.5939 -0.7873
vn -0.2484 0.7337 -0.6324
vn -0.8645 0.3816 0.3273
vn -0.6165 0.7225 0.3130
vn 0.5664 0.6795 0.4664
vn 0.2745 0.4525 -0.8485
vn -0.8021 0.4944 -0.3349
vn 0.2788 0.7652 0.5803
vn 0.5745 0.5939 -0.5633
vn -0.6866 0.7225 -0.0816
vn 0.2125 0.6795 0.7023
vn -0.7047 0.6889 0.1701
vn 0.0801 0.2621 0.9617
vn -0.0752 0.7652 0.6394
vn 0.7868 0.5939 -0.1683
vn 0.5190 0.4751 0.7106
vn 0.8184 0.3696 -0.4400
vn 0.8725 0.4525 -0.1845
vn -0.1091 0.4944 -0.8623
vn 0.4570 0.5706 0.6824
vn 0.4899 0.7125 -0.5023
vn 0.7478 0.5581 0.3597
vn 0.2123 0.6820 -0.6998
vn -0.6152 0.7188 -0.3239
vn -0.1004 0.6527 0.7509
vn 0.6479 0.5581 -0.5183
vn -0.5390 0.6820 -0.4943
vn -0.8176 0.5706 0.0775
vn 0.2089 0.7125 0.6699
vt 0.500000 0.000000
vt 1.000000 0.000000
vt 1.000000 1.000000
vt 0.500000 1.000000
vt 0.000000 0.000000
vt 0.000000 1.000000
s 0
f 46/21/42 43/22/42 45/23/42 47/24/42
f 42/25/43 46/21/43 47/24/43 44/26/43
f 52/21/44 49/22/44 51/23/44 53/24/44
f 48/25/45 52/21/45 53/24/45 50/26/45
f 58/21/46 55/22/46 57/23/46 59/24/46
f 54/25/47 58/21/47 59/24/47 56/26/47
f 64/21/48 61/22/48 63/23/48 65/24/48
f 60/25/49 64/21/49 65/24/49 62/26/49
f 70/21/50 67/22/50 69/23/50 71/24/50
f 66/25/51 70/21/51 71/24/51 68/26/51
f 76/21/52 73/22/52 75/23/52 77/24/52
f 72/25/53 76/21/53 77/24/53 74/26/53
f 82/21/54 79/22/54 81/23/54 83/24/54
f 78/25/55 82/21/55 83/24/55 80/26/55
f 88/21/56 85/22/56 87/23/56 89/24/56
f 84/25/57 88/21/57 89/24/57 86/26/57
f 94/21/58 91/22/58 93/23/58 95/24/58
f 90/25/59 94/21/59 95/24/59 92/26/59
f 100/21/60 97/22/60 99/23/60 101/24/60
f 96/25/61 100/21/61 101/24/61 98/26/61
f 106/21/62 103/22/62 105/23/62 107/24/62
f 102/25/63 106/21/63 107/24/63 104/26/63
f 112/21/64 109/22/64 111/23/64 113/24/64
f 108/25/65 112/21/65 113/24/65 110/26/65
f 118/21/66 115/22/66 117/23/66 119/24/66
f 114/25/67 118/21/67 119/24/67 116/26/67
f 124/21/68 121/22/68 123/23/68 125/24/68
f 120/25/69 124/21/69 125/24/69 122/26/69
f 130/21/70 127/22/70 129/23/70 131/24/70
f 126/25/71 130/21/71 131/24/71 128/26/71
f 136/21/72 133/22/72 135/23/72 137/24/72
f 132/25/73 136/21/73 137/24/73 134/26/73
f 142/21/74 139/22/74 141/23/74 143/24/74
f 138/25/75 142/21/75 143/24/75 140/26/75
f 148/21/76 145/22/76 147/23/76 149/24/76
f 144/25/77 148/21/77 149/24/77 146/26/77
